<?xml version="1.0" encoding="UTF-8"?>
<!DOCTYPE svg PUBLIC "-//W3C//DTD SVG 1.1//EN" "http://www.w3.org/Graphics/SVG/1.1/DTD/svg11.dtd">
<!-- Creator: CorelDRAW 2020 (64 Bit) -->
<svg xmlns="http://www.w3.org/2000/svg" xml:space="preserve" width="8.26772in" height="11.6929in" version="1.1" style="shape-rendering:geometricPrecision; text-rendering:geometricPrecision; image-rendering:optimizeQuality; fill-rule:evenodd; clip-rule:evenodd"
viewBox="0 0 8267.72 11692.91"
 xmlns:xlink="http://www.w3.org/1999/xlink"
 xmlns:xodm="http://www.corel.com/coreldraw/odm/2003">
 <defs>
  <style type="text/css">
   <![CDATA[
    .fil2 {fill:#ADC55B}
    .fil1 {fill:#B92321}
    .fil0 {fill:#ED5755}
   ]]>
  </style>
 </defs>
 <g id="Camada_x0020_1">
  <metadata id="CorelCorpID_0Corel-Layer"/>
  <g id="_2367617108080">
   <path class="fil0" d="M6182.18 6271.68c-88.3,549.2 -389.57,1052.85 -866.1,1360.97 -211.54,136.78 -387.25,177.64 -562.28,185.12l-142.31 0c-176.69,-5.97 -362.11,-28.38 -591.11,-5.3 -17.72,1.79 -35,3.56 -51.88,5.3l-617.71 0c-74.93,-16.48 -155.54,-41.54 -248.14,-78.03 -418.33,-167.94 -799.58,-636.4 -959.84,-1051.81 -90.24,-233.92 -128.87,-457.68 -134.46,-707.69 12.41,-552.59 222.11,-1060.71 628.13,-1440.63 170.53,-147.05 401.51,-181.74 619.65,-202.39 299.94,-21 448.48,81.38 749.6,21.75 210.54,-40.29 492.77,-103.2 701.16,-56.96 119.79,26.58 168.31,40.27 294.22,51.67 709.02,64.22 1081.37,698.57 1181.08,1341.66l0 576.34z"/>
   <path class="fil1" d="M6182.18 6271.68c-88.3,549.2 -389.57,1052.85 -866.1,1360.97 -211.54,136.78 -387.25,177.64 -562.28,185.12l-142.31 0c-176.69,-5.97 -362.11,-28.38 -591.11,-5.3 -17.72,1.79 -35,3.56 -51.88,5.3l-617.71 0c-74.93,-16.48 -155.54,-41.54 -248.14,-78.03 -418.33,-167.94 -799.58,-636.4 -959.84,-1051.81 -90.24,-233.92 -128.87,-457.68 -134.46,-707.69 12.41,-552.59 222.11,-1060.71 628.13,-1440.63 170.53,-147.05 401.51,-181.74 619.65,-202.39 299.94,-21 448.48,81.38 749.6,21.75 210.54,-40.29 492.77,-103.2 701.16,-56.96 119.79,26.58 168.31,40.27 294.22,51.67 709.02,64.22 1081.37,698.57 1181.08,1341.66l0 576.34zm-369.41 581.33c143.17,-264.99 222.23,-565.02 229.9,-871.14 -12.28,-365.78 -118.2,-756.16 -331.93,-1044.01 -169.04,-227.67 -408.16,-390.16 -724.61,-418.82 -120.17,-10.88 -174.76,-23.2 -269.44,-44.56 -32.41,-7.31 -24.84,-5.77 -45.61,-10.37 -156.45,-34.71 -391.3,11.03 -579.77,47.74l-48.22 9.35 -5.46 1.17c-195.37,38.69 -329.85,19.42 -470.37,-0.72 -90.89,-13.02 -184.87,-26.49 -300.07,-18.43l-0.02 -0.22c-99.54,9.51 -201.22,22.17 -294.46,48.15 -84.6,23.58 -163.24,58.66 -227.52,114.09l-0.13 -0.15c-180.79,170.35 -318.83,369.11 -413.93,587.25 -98.29,225.43 -150.56,471.4 -156.7,728 2.7,114.38 12.95,222.96 32.8,329.81 19.74,106.21 49.2,210.78 90.51,317.87 76.71,198.85 209.93,412.21 375.33,593.46 145.46,159.39 313.57,291.26 486.28,361.85l3.83 1.44c300.1,118.25 464.03,101.25 761.48,70.4 14.75,-1.53 28.91,-3 79.43,-8.09 185.12,-18.65 338.73,-10 482.09,-1.93 250.18,14.09 464.1,26.15 739.39,-151.85 251.06,-162.33 449.03,-384.6 587.18,-640.31z"/>
   <path class="fil2" d="M4022.87 4021.87c14.24,-36.11 21.87,-129.17 34.03,-206.94 12.15,-77.78 28.82,-140.28 51.39,-193.75 22.57,-53.47 51.04,-97.92 77.78,-131.94 26.74,-34.03 51.74,-57.64 74.3,-66.67 22.57,-9.03 42.71,-3.47 60.77,8.69 18.06,12.15 34.03,30.9 42.36,49.65 8.33,18.75 9.03,37.5 -4.17,61.46 -13.19,23.96 -40.28,53.13 -71.53,92.36 -31.25,39.24 -66.67,88.54 -89.93,133.33 -23.26,44.79 -34.37,85.07 -44.1,120.49 -9.72,35.41 -18.05,65.97 -22.91,98.61 -4.86,32.64 -6.25,67.36 -6.6,91.67 -0.35,24.3 0.35,38.19 2.09,48.96 1.74,10.76 4.51,18.41 18.75,10.77 14.24,-7.64 39.93,-30.56 74.31,-55.91 34.37,-25.35 77.43,-53.13 120.49,-71.18 43.06,-18.06 86.11,-26.39 127.08,-31.25 40.97,-4.86 79.86,-6.25 112.5,-5.9 32.64,0.35 59.03,2.43 78.82,7.98 19.79,5.56 32.99,14.59 36.81,25.35 3.82,10.76 -1.74,23.26 -14.24,35.76 -12.5,12.5 -31.94,25 -54.52,37.15 -22.57,12.15 -48.26,23.96 -70.49,36.8 -22.22,12.85 -40.97,26.74 -53.47,41.32 -12.5,14.58 -18.75,29.86 -21.88,43.06 -3.12,13.19 -3.12,24.3 12.85,32.29 15.97,7.98 47.92,12.84 74.31,16.31 26.39,3.47 47.22,5.56 81.25,15.28 34.03,9.72 81.25,27.08 118.06,48.26 36.81,21.18 63.2,46.18 76.74,67.36 13.54,21.18 14.24,38.54 -0.35,48.96 -14.58,10.42 -44.44,13.89 -79.52,10.77 -35.07,-3.13 -75.35,-12.85 -119.79,-15.28 -44.44,-2.43 -93.06,2.43 -126.39,10.07 -33.33,7.64 -51.39,18.06 -61.11,28.82 -9.72,10.76 -11.11,21.87 -1.04,45.48 10.07,23.61 31.6,59.72 45.14,94.8 13.54,35.07 19.1,69.09 18.06,90.28 -1.04,21.18 -8.68,29.51 -32.64,26.39 -23.96,-3.13 -64.23,-17.71 -99.3,-40.28 -35.07,-22.57 -64.93,-53.13 -104.17,-77.78 -39.24,-24.65 -87.85,-43.41 -120.14,-51.39 -32.29,-7.98 -48.26,-5.21 -65.97,6.25 -17.71,11.46 -37.15,31.59 -63.89,49.3 -26.74,17.71 -60.76,32.98 -94.44,44.1 -33.68,11.11 -67.01,18.06 -101.39,25.35 -34.38,7.29 -69.79,14.93 -101.39,26.39 -31.6,11.46 -59.37,26.74 -81.94,31.6 -22.57,4.86 -39.93,-0.7 -46.87,-17.02 -6.94,-16.32 -3.48,-43.41 2.78,-71.88 6.25,-28.47 15.28,-58.33 28.82,-85.07 13.54,-26.74 31.59,-50.35 44.79,-72.22 13.19,-21.87 21.52,-42.01 -5.91,-76.04 -27.43,-34.03 -90.63,-81.94 -143.75,-114.58 -53.13,-32.64 -96.19,-50 -122.92,-65.97 -26.74,-15.97 -37.15,-30.56 -32.98,-44.1 4.17,-13.54 22.92,-26.04 55.91,-30.56 32.98,-4.52 80.2,-1.04 128.47,2.78 48.26,3.82 97.57,7.99 134.03,11.81 36.46,3.82 60.07,7.29 78.12,1.39 18.06,-5.91 30.56,-21.18 28.82,-43.75 -1.74,-22.57 -17.7,-52.43 -36.45,-83.68 -18.75,-31.25 -40.28,-63.89 -54.17,-87.85 -13.89,-23.96 -20.14,-39.24 -17.71,-51.74 2.43,-12.5 13.54,-22.22 35.77,-19.44 22.22,2.78 55.55,18.06 96.87,41.67 41.32,23.61 90.62,55.55 125.69,81.94 35.07,26.39 55.9,47.22 70.14,11.11z"/>
  </g>
 </g>
</svg>
